<svg xmlns="http://www.w3.org/2000/svg" viewBox="0 0 128 128">
  <defs>
    <linearGradient id="dollar" x1="0" y1="0" x2="1" y2="1">
      <stop offset="0%" stop-color="#10b981" />
      <stop offset="100%" stop-color="#047857" />
    </linearGradient>
  </defs>
  <rect width="128" height="128" rx="28" fill="url(#dollar)" />
  <path
    d="M70 26v8c10 1 18 6 18 16 0 9-6 14-18 17v18c7-1 13-4 17-9l9 6c-6 8-15 13-26 14v8h-8v-8c-12-1-22-7-26-18l10-5c3 8 9 12 16 13V62c-11-3-20-7-20-18 0-10 8-16 20-18v-8h8zm-8 18c-6 1-10 4-10 9 0 5 4 7 10 9V44zm8 44c7-1 11-4 11-9 0-5-4-8-11-10v19z"
    fill="#f8fafc"
  />
</svg>
